<svg width="34" height="34" viewBox="0 0 34 34" fill="none" xmlns="http://www.w3.org/2000/svg">
<g id="icon_search">
<path id="Vector" d="M26.4592 28.4199L18.6192 20.5799C17.9192 21.1399 17.1142 21.5833 16.2042 21.9099C15.2942 22.2366 14.3259 22.4 13.2992 22.4C10.7559 22.4 8.60362 21.5194 6.84242 19.7581C5.08029 17.996 4.19922 15.8433 4.19922 13.3C4.19922 10.7566 5.08029 8.60388 6.84242 6.84175C8.60362 5.08055 10.7559 4.19995 13.2992 4.19995C15.8426 4.19995 17.9953 5.08055 19.7574 6.84175C21.5186 8.60388 22.3992 10.7566 22.3992 13.3C22.3992 14.3266 22.2359 15.2949 21.9092 16.2049C21.5826 17.1149 21.1392 17.92 20.5792 18.62L28.4542 26.4949C28.7109 26.7516 28.8392 27.0666 28.8392 27.4399C28.8392 27.8133 28.6992 28.1399 28.4192 28.4199C28.1625 28.6766 27.8359 28.8049 27.4392 28.8049C27.0426 28.8049 26.7159 28.6766 26.4592 28.4199ZM13.2992 19.5999C15.0492 19.5999 16.537 18.9877 17.7624 17.7631C18.987 16.5377 19.5992 15.0499 19.5992 13.3C19.5992 11.55 18.987 10.0622 17.7624 8.83675C16.537 7.61222 15.0492 6.99995 13.2992 6.99995C11.5492 6.99995 10.0615 7.61222 8.83602 8.83675C7.61149 10.0622 6.99922 11.55 6.99922 13.3C6.99922 15.0499 7.61149 16.5377 8.83602 17.7631C10.0615 18.9877 11.5492 19.5999 13.2992 19.5999Z" fill="#999393"/>
</g>
</svg>
