<svg width="25" height="25" viewBox="0 0 25 25" fill="none" xmlns="http://www.w3.org/2000/svg">
<path d="M22.2004 24.1835L14.405 16.377C13.7089 16.9346 12.9085 17.376 12.0037 17.7013C11.0989 18.0266 10.136 18.1892 9.11519 18.1892C6.58631 18.1892 4.44627 17.3124 2.69508 15.5587C0.942955 13.8041 0.0668945 11.6605 0.0668945 9.12806C0.0668945 6.59558 0.942955 4.45203 2.69508 2.69742C4.44627 0.943737 6.58631 0.0668945 9.11519 0.0668945C11.6441 0.0668945 13.7846 0.943737 15.5367 2.69742C17.2879 4.45203 18.1635 6.59558 18.1635 9.12806C18.1635 10.1503 18.0011 11.1145 17.6763 12.0207C17.3515 12.9268 16.9106 13.7283 16.3538 14.4254L24.1841 22.2668C24.4393 22.5223 24.5669 22.836 24.5669 23.2077C24.5669 23.5795 24.4277 23.9047 24.1493 24.1835C23.8941 24.4391 23.5693 24.5669 23.1748 24.5669C22.7804 24.5669 22.4556 24.4391 22.2004 24.1835ZM9.11519 15.4012C10.8552 15.4012 12.3345 14.7915 13.553 13.5722C14.7706 12.352 15.3794 10.8706 15.3794 9.12806C15.3794 7.38553 14.7706 5.90414 13.553 4.68391C12.3345 3.4646 10.8552 2.85495 9.11519 2.85495C7.37513 2.85495 5.89585 3.4646 4.67735 4.68391C3.45977 5.90414 2.85099 7.38553 2.85099 9.12806C2.85099 10.8706 3.45977 12.352 4.67735 13.5722C5.89585 14.7915 7.37513 15.4012 9.11519 15.4012Z" fill="white"/>
</svg>
