<svg width="20" height="20" viewBox="0 0 20 20" fill="none" xmlns="http://www.w3.org/2000/svg">
<path d="M17 8.49639V16.9231C17 17.4739 16.7788 18.0022 16.3849 18.3917C15.9911 18.7812 15.457 19 14.9 19H5.1C4.54305 19 4.0089 18.7812 3.61508 18.3917C3.22125 18.0022 3 17.4739 3 16.9231V3.07692C3 2.52609 3.22125 1.99782 3.61508 1.60832C4.0089 1.21882 4.54305 1 5.1 1H9.42031C9.79149 1.00006 10.1474 1.14589 10.4099 1.40543L16.5901 7.51764C16.8525 7.77725 16.9999 8.1293 17 8.49639Z" stroke="#8741CB" stroke-width="1.5" stroke-linejoin="round"/>
<path d="M17 8.49639V16.9231C17 17.4739 16.7788 18.0022 16.3849 18.3917C15.9911 18.7812 15.457 19 14.9 19H5.1C4.54305 19 4.0089 18.7812 3.61508 18.3917C3.22125 18.0022 3 17.4739 3 16.9231V3.07692C3 2.52609 3.22125 1.99782 3.61508 1.60832C4.0089 1.21882 4.54305 1 5.1 1H9.42031C9.79149 1.00006 10.1474 1.14589 10.4099 1.40543L16.5901 7.51764C16.8525 7.77725 16.9999 8.1293 17 8.49639Z" stroke="#8741CB" stroke-width="1.5" stroke-linejoin="round"/>
<path d="M9 1V6.52632C9 6.91716 9.17744 7.292 9.49329 7.56837C9.80914 7.84474 10.2375 8 10.6842 8H17" stroke="#8741CB" stroke-width="1.5" stroke-linecap="round" stroke-linejoin="round"/>
<path d="M9 1V6.52632C9 6.91716 9.17744 7.292 9.49329 7.56837C9.80914 7.84474 10.2375 8 10.6842 8H17" stroke="#8741CB" stroke-width="1.5" stroke-linecap="round" stroke-linejoin="round"/>
</svg>
