<svg width="20" height="20" viewBox="0 0 20 20" fill="none" xmlns="http://www.w3.org/2000/svg">
<path d="M16.4797 7.99176V7.99175H16.475H13.1083C12.5017 7.99175 12.269 7.87824 12.1793 7.79886C12.1132 7.74036 12 7.58844 12 7.09175V3.31675C12 2.82578 12.1125 2.67214 12.1804 2.61179C12.271 2.53134 12.5044 2.41675 13.1083 2.41675H16.475C17.079 2.41675 17.3124 2.53134 17.4029 2.61179C17.4708 2.67214 17.5833 2.82578 17.5833 3.31675V7.10008C17.5833 7.59161 17.4706 7.7441 17.404 7.80303C17.3151 7.88171 17.0833 7.99556 16.4797 7.99176Z" stroke="#717171" stroke-width="1.5"/>
<path d="M17.5833 13.1083V16.475C17.5833 17.0624 17.4607 17.2807 17.3707 17.3707C17.2807 17.4607 17.0624 17.5833 16.475 17.5833H13.1083C12.5209 17.5833 12.3026 17.4607 12.2126 17.3707C12.1226 17.2807 12 17.0624 12 16.475V13.1083C12 12.5209 12.1226 12.3026 12.2126 12.2126C12.3026 12.1226 12.5209 12 13.1083 12H16.475C17.0624 12 17.2807 12.1226 17.3707 12.2126C17.4607 12.3026 17.5833 12.5209 17.5833 13.1083Z" stroke="#717171" stroke-width="1.5"/>
<path d="M6.89634 7.99176V7.99175H6.89163H3.52496C2.91834 7.99175 2.68567 7.87824 2.59597 7.79886C2.52987 7.74036 2.41663 7.58844 2.41663 7.09175V3.31675C2.41663 2.82578 2.52915 2.67214 2.59707 2.61179C2.68761 2.53134 2.92101 2.41675 3.52496 2.41675H6.89163C7.49558 2.41675 7.72898 2.53134 7.81952 2.61179C7.88744 2.67214 7.99996 2.82578 7.99996 3.31675V7.10008C7.99996 7.59161 7.88719 7.7441 7.82061 7.80303C7.73171 7.88171 7.49988 7.99556 6.89634 7.99176Z" stroke="#717171" stroke-width="1.5"/>
<path d="M7.99996 13.1083V16.475C7.99996 17.0624 7.87731 17.2807 7.78734 17.3707C7.69736 17.4607 7.47901 17.5833 6.89163 17.5833H3.52496C2.93758 17.5833 2.71922 17.4607 2.62925 17.3707C2.53927 17.2807 2.41663 17.0624 2.41663 16.475V13.1083C2.41663 12.5209 2.53927 12.3026 2.62925 12.2126C2.71922 12.1226 2.93758 12 3.52496 12H6.89163C7.47901 12 7.69736 12.1226 7.78734 12.2126C7.87731 12.3026 7.99996 12.5209 7.99996 13.1083Z" stroke="#717171" stroke-width="1.5"/>
</svg>
