<svg width="20" height="20" viewBox="0 0 20 20" fill="none" xmlns="http://www.w3.org/2000/svg">
<path d="M10 1C8.21997 1 6.47991 1.52784 4.99987 2.51677C3.51983 3.50571 2.36628 4.91131 1.68509 6.55585C1.0039 8.20038 0.82567 10.01 1.17294 11.7558C1.5202 13.5016 2.37737 15.1053 3.63604 16.364C4.89471 17.6226 6.49836 18.4798 8.24419 18.8271C9.99002 19.1743 11.7996 18.9961 13.4442 18.3149C15.0887 17.6337 16.4943 16.4802 17.4832 15.0001C18.4722 13.5201 19 11.78 19 10C18.9975 7.61382 18.0485 5.3261 16.3612 3.63882C14.6739 1.95154 12.3862 1.00252 10 1ZM10 17.6154C8.49382 17.6154 7.02146 17.1687 5.76912 16.332C4.51678 15.4952 3.5407 14.3058 2.96431 12.9143C2.38792 11.5228 2.23711 9.99155 2.53095 8.51431C2.82479 7.03707 3.55008 5.68014 4.61511 4.61511C5.68014 3.55008 7.03708 2.82478 8.51431 2.53094C9.99155 2.2371 11.5228 2.38791 12.9143 2.9643C14.3058 3.54069 15.4952 4.51677 16.332 5.76912C17.1688 7.02146 17.6154 8.49382 17.6154 10C17.6131 12.019 16.81 13.9547 15.3824 15.3824C13.9547 16.81 12.019 17.6131 10 17.6154ZM15.5385 10C15.5385 10.1836 15.4655 10.3597 15.3357 10.4895C15.2059 10.6194 15.0298 10.6923 14.8462 10.6923H10C9.81639 10.6923 9.6403 10.6194 9.51047 10.4895C9.38063 10.3597 9.30769 10.1836 9.30769 10V5.15385C9.30769 4.97023 9.38063 4.79414 9.51047 4.66431C9.6403 4.53448 9.81639 4.46154 10 4.46154C10.1836 4.46154 10.3597 4.53448 10.4895 4.66431C10.6194 4.79414 10.6923 4.97023 10.6923 5.15385V9.30769H14.8462C15.0298 9.30769 15.2059 9.38063 15.3357 9.51046C15.4655 9.6403 15.5385 9.81639 15.5385 10Z" fill="#717171"/>
</svg>
