<svg width="20" height="20" viewBox="0 0 20 20" fill="none" xmlns="http://www.w3.org/2000/svg">
<path d="M16.4797 7.99176V7.99175H16.475H13.1083C12.5017 7.99175 12.269 7.87824 12.1793 7.79886C12.1132 7.74036 12 7.58844 12 7.09175V3.31675C12 2.82578 12.1125 2.67214 12.1804 2.61179C12.271 2.53134 12.5044 2.41675 13.1083 2.41675H16.475C17.079 2.41675 17.3124 2.53134 17.4029 2.61179C17.4708 2.67214 17.5833 2.82578 17.5833 3.31675V7.10008C17.5833 7.59161 17.4706 7.7441 17.404 7.80303C17.3151 7.88171 17.0833 7.99556 16.4797 7.99176Z" stroke="#8741CB" stroke-width="1.5"/>
<path d="M17.5833 13.1083V16.475C17.5833 17.0624 17.4607 17.2807 17.3707 17.3707C17.2807 17.4607 17.0624 17.5833 16.475 17.5833H13.1083C12.5209 17.5833 12.3026 17.4607 12.2126 17.3707C12.1226 17.2807 12 17.0624 12 16.475V13.1083C12 12.5209 12.1226 12.3026 12.2126 12.2126C12.3026 12.1226 12.5209 12 13.1083 12H16.475C17.0624 12 17.2807 12.1226 17.3707 12.2126C17.4607 12.3026 17.5833 12.5209 17.5833 13.1083Z" stroke="#8741CB" stroke-width="1.5"/>
<path d="M6.89622 7.99176V7.99175H6.8915H3.52484C2.91822 7.99175 2.68554 7.87824 2.59585 7.79886C2.52975 7.74036 2.4165 7.58844 2.4165 7.09175V3.31675C2.4165 2.82578 2.52903 2.67214 2.59695 2.61179C2.68749 2.53134 2.92089 2.41675 3.52484 2.41675H6.8915C7.49546 2.41675 7.72886 2.53134 7.81939 2.61179C7.88732 2.67214 7.99984 2.82578 7.99984 3.31675V7.10008C7.99984 7.59161 7.88707 7.7441 7.82049 7.80303C7.73158 7.88171 7.49976 7.99556 6.89622 7.99176Z" stroke="#8741CB" stroke-width="1.5"/>
<path d="M7.99984 13.1083V16.475C7.99984 17.0624 7.87719 17.2807 7.78722 17.3707C7.69724 17.4607 7.47889 17.5833 6.8915 17.5833H3.52484C2.93745 17.5833 2.7191 17.4607 2.62913 17.3707C2.53915 17.2807 2.4165 17.0624 2.4165 16.475V13.1083C2.4165 12.5209 2.53915 12.3026 2.62913 12.2126C2.7191 12.1226 2.93745 12 3.52484 12H6.8915C7.47889 12 7.69724 12.1226 7.78722 12.2126C7.87719 12.3026 7.99984 12.5209 7.99984 13.1083Z" stroke="#8741CB" stroke-width="1.5"/>
</svg>
