<svg width="20" height="20" viewBox="0 0 20 20" fill="none" xmlns="http://www.w3.org/2000/svg">
<path d="M15.7031 6.5625C15.5886 8.15117 14.4101 9.375 13.1249 9.375C11.8398 9.375 10.6593 8.15156 10.5468 6.5625C10.4296 4.90977 11.5769 3.75 13.1249 3.75C14.673 3.75 15.8202 4.93984 15.7031 6.5625Z" stroke="#8741CB" stroke-width="1.5" stroke-linecap="round" stroke-linejoin="round"/>
<path d="M13.1251 11.875C10.5794 11.875 8.13134 13.1395 7.51806 15.602C7.43681 15.9277 7.6411 16.25 7.97587 16.25H18.2747C18.6095 16.25 18.8126 15.9277 18.7325 15.602C18.1192 13.1 15.6712 11.875 13.1251 11.875Z" stroke="#8741CB" stroke-width="1.5" stroke-miterlimit="10"/>
<path d="M7.81238 7.26328C7.72098 8.53203 6.76863 9.53125 5.74207 9.53125C4.71551 9.53125 3.7616 8.53242 3.67176 7.26328C3.5784 5.94336 4.50535 5 5.74207 5C6.97879 5 7.90574 5.96758 7.81238 7.26328Z" stroke="#8741CB" stroke-width="1.5" stroke-linecap="round" stroke-linejoin="round"/>
<path d="M8.04677 11.9531C7.34169 11.6301 6.56513 11.5059 5.74208 11.5059C3.71083 11.5059 1.7538 12.5156 1.26357 14.4824C1.19911 14.7426 1.36239 15 1.62958 15H6.01552" stroke="#8741CB" stroke-width="1.5" stroke-miterlimit="10" stroke-linecap="round"/>
</svg>
