<svg width="20" height="20" viewBox="0 0 20 20" fill="none" xmlns="http://www.w3.org/2000/svg">
    <path
        d="M2 4C2 3.46957 2.21071 2.96086 2.58579 2.58579C2.96086 2.21071 3.46957 2 4 2H12.3636C12.6263 2 12.8864 2.05173 13.129 2.15224C13.3717 2.25275 13.5921 2.40007 13.7779 2.58579C13.9636 2.7715 14.1109 2.99198 14.2114 3.23463C14.3119 3.47728 14.3636 3.73736 14.3636 4V12.1818H18V15.2727C18 15.996 17.7127 16.6897 17.2012 17.2012C16.6897 17.7127 15.996 18 15.2727 18H4.72727C4.00396 18 3.31026 17.7127 2.7988 17.2012C2.28734 16.6897 2 15.996 2 15.2727V4ZM14.3636 16.9091H15.2727C15.7067 16.9091 16.1229 16.7367 16.4298 16.4298C16.7367 16.1229 16.9091 15.7067 16.9091 15.2727V13.2727H14.3636V16.9091ZM4 3.09091C3.49818 3.09091 3.09091 3.49818 3.09091 4V15.2727C3.09091 15.7067 3.26331 16.1229 3.57019 16.4298C3.87707 16.7367 4.29328 16.9091 4.72727 16.9091H13.2727V4C13.2727 3.49818 12.8655 3.09091 12.3636 3.09091H4ZM5.45455 5.63636C5.30988 5.63636 5.17114 5.69383 5.06885 5.79612C4.96656 5.89842 4.90909 6.03715 4.90909 6.18182C4.90909 6.32648 4.96656 6.46522 5.06885 6.56751C5.17114 6.66981 5.30988 6.72727 5.45455 6.72727H10.9091C11.0538 6.72727 11.1925 6.66981 11.2948 6.56751C11.3971 6.46522 11.4545 6.32648 11.4545 6.18182C11.4545 6.03715 11.3971 5.89842 11.2948 5.79612C11.1925 5.69383 11.0538 5.63636 10.9091 5.63636H5.45455ZM4.90909 9.81818C4.90909 9.67352 4.96656 9.53478 5.06885 9.43249C5.17114 9.33019 5.30988 9.27273 5.45455 9.27273H10.9091C11.0538 9.27273 11.1925 9.33019 11.2948 9.43249C11.3971 9.53478 11.4545 9.67352 11.4545 9.81818C11.4545 9.96285 11.3971 10.1016 11.2948 10.2039C11.1925 10.3062 11.0538 10.3636 10.9091 10.3636H5.45455C5.30988 10.3636 5.17114 10.3062 5.06885 10.2039C4.96656 10.1016 4.90909 9.96285 4.90909 9.81818ZM5.45455 12.9091C5.30988 12.9091 5.17114 12.9666 5.06885 13.0689C4.96656 13.1711 4.90909 13.3099 4.90909 13.4545C4.90909 13.5992 4.96656 13.7379 5.06885 13.8402C5.17114 13.9425 5.30988 14 5.45455 14H8C8.14466 14 8.2834 13.9425 8.38569 13.8402C8.48799 13.7379 8.54545 13.5992 8.54545 13.4545C8.54545 13.3099 8.48799 13.1711 8.38569 13.0689C8.2834 12.9666 8.14466 12.9091 8 12.9091H5.45455Z"
        fill="#717171" stroke="#717171" stroke-width="0.5" />
</svg>