<svg width="20" height="20" viewBox="0 0 20 20" fill="none" xmlns="http://www.w3.org/2000/svg">
<path d="M5.4 11.8222H2V2H17.8667V11.8222H14.4667M14.0889 19C14.0889 17.518 14.5 16.0651 15.2766 14.8029L15.6 14.2778V14.0889H4.26667V14.2778L4.59004 14.8029C5.36665 16.0651 5.77781 17.518 5.77778 19M12.9556 12.2V9.55556C12.9556 9.55556 11.8222 8.8 9.93333 8.8C8.04444 8.8 6.91111 9.55556 6.91111 9.55556V12.2M9.82 7.28889C9.82 7.28889 8.61111 6.53333 8.61111 5.58889C8.61111 5.23861 8.75026 4.90269 8.99794 4.65501C9.24562 4.40732 9.58155 4.26818 9.93182 4.26818C10.2821 4.26818 10.618 4.40732 10.8657 4.65501C11.1134 4.90269 11.2525 5.23861 11.2525 5.58889C11.2525 6.53333 10.0467 7.28889 10.0467 7.28889H9.82Z" stroke="#8741CB" stroke-width="1.5"/>
</svg>
